<svg width="10rem" height="auto" xmlns="http://www.w3.org/2000/svg" viewBox="0 0 393.09 85.66">
    <defs>
        <style>.cls-1{fill:#231f20;}</style>
    </defs>
    <g id="Layer_2" data-name="Layer 2">
        <g id="Layer_1-2" data-name="Layer 1">
            <path class="cls-1"
                d="M10.69,63.59A20.72,20.72,0,0,1,2.8,55.4,24.63,24.63,0,0,1,0,43.53,24.66,24.66,0,0,1,2.8,31.66a20.33,20.33,0,0,1,7.89-8.14,23,23,0,0,1,11.73-2.94A23.22,23.22,0,0,1,34.2,23.52a20.24,20.24,0,0,1,7.93,8.14,24.66,24.66,0,0,1,2.8,11.87,24.63,24.63,0,0,1-2.8,11.87,20.62,20.62,0,0,1-7.93,8.19,23,23,0,0,1-11.78,3A22.78,22.78,0,0,1,10.69,63.59Zm22.72-8.06c2.84-3,4.25-7,4.25-12A18.62,18.62,0,0,0,35.74,35a14.21,14.21,0,0,0-5.39-5.83,15.24,15.24,0,0,0-7.93-2.06,15.18,15.18,0,0,0-7.92,2.06A14.08,14.08,0,0,0,9.11,35a18.5,18.5,0,0,0-1.93,8.58c0,5,1.42,9,4.25,12a14.33,14.33,0,0,0,11,4.55A14.32,14.32,0,0,0,33.41,55.53Z" />
            <path class="cls-1"
                d="M56.32,65.69a.85.85,0,0,1-1-1V22.33c0-.58.32-.87,1-.87h4.46c.65,0,1,.29,1,.87l.35,7.27a15.59,15.59,0,0,1,6.65-6.7A19.48,19.48,0,0,1,78,20.58q7.44,0,11.65,4.34t4.21,12V64.73c0,.64-.3,1-.88,1H87.76a.85.85,0,0,1-1-1V39.85q0-6.39-2.63-9.59t-8.06-3.2a13.42,13.42,0,0,0-6.48,1.71,13.69,13.69,0,0,0-5.21,5.13,16,16,0,0,0-2.06,8.4V64.73q0,1-.87,1Z" />
            <path class="cls-1"
                d="M113.82,82.51a18.08,18.08,0,0,1-7.58-9.2,1,1,0,0,1-.09-.44c0-.29.21-.52.62-.7L111,70.6l.35-.09a.9.9,0,0,1,.88.61,13.8,13.8,0,0,0,5.21,6,16.26,16.26,0,0,0,8.71,2.1A17.35,17.35,0,0,0,136.85,76q4.26-3.2,4.25-10.29V57.81a16.57,16.57,0,0,1-6.57,6.39,19,19,0,0,1-9.37,2.37A20.92,20.92,0,0,1,114,63.63a19.38,19.38,0,0,1-7.4-8.14,26.5,26.5,0,0,1-2.59-12,26.29,26.29,0,0,1,2.59-11.87,19.38,19.38,0,0,1,7.4-8.14,20.92,20.92,0,0,1,11.12-2.94A19.39,19.39,0,0,1,134.8,23a16,16,0,0,1,6.56,6.65l.35-7.36c0-.58.32-.87,1-.87h4.55a.77.77,0,0,1,.88.87V65q0,10.24-6.05,15.46T126.3,85.66A23.66,23.66,0,0,1,113.82,82.51Zm23.65-27c2.83-3,4.24-7,4.24-12A18.62,18.62,0,0,0,139.79,35a14.14,14.14,0,0,0-5.39-5.83,16.27,16.27,0,0,0-15.85,0A14.08,14.08,0,0,0,113.16,35a18.62,18.62,0,0,0-1.93,8.58c0,5,1.42,9,4.25,12a15.56,15.56,0,0,0,22,0Z" />
            <path class="cls-1"
                d="M168.6,63.63a19.38,19.38,0,0,1-7.4-8.14,26.63,26.63,0,0,1-2.58-12,26.42,26.42,0,0,1,2.58-11.87,19.38,19.38,0,0,1,7.4-8.14,20.93,20.93,0,0,1,11.13-2.94A19.33,19.33,0,0,1,189.36,23a16,16,0,0,1,6.57,6.65l.35-7.36q0-.87,1-.87h4.56a.77.77,0,0,1,.87.87v42.4q0,1-.87,1h-4.56a.85.85,0,0,1-1-1l-.35-7.36a16.29,16.29,0,0,1-6.57,6.7,19.15,19.15,0,0,1-9.63,2.5A20.93,20.93,0,0,1,168.6,63.63ZM192,55.53c2.83-3,4.25-7,4.25-12A18.5,18.5,0,0,0,194.35,35,14.12,14.12,0,0,0,189,29.12a16.29,16.29,0,0,0-15.86,0A14.12,14.12,0,0,0,167.73,35a18.5,18.5,0,0,0-1.93,8.58c0,5,1.42,9,4.25,12a15.55,15.55,0,0,0,22,0Z" />
            <path class="cls-1"
                d="M223.17,63.63a19.38,19.38,0,0,1-7.4-8.14,26.5,26.5,0,0,1-2.59-12,26.29,26.29,0,0,1,2.59-11.87,19.38,19.38,0,0,1,7.4-8.14,20.92,20.92,0,0,1,11.12-2.94A19.23,19.23,0,0,1,243.75,23a15.9,15.9,0,0,1,6.48,6.39V.88c0-.59.32-.88,1-.88h5.16a.78.78,0,0,1,.88.88V64.73c0,.64-.29,1-.88,1h-4.55a.85.85,0,0,1-1-1l-.35-7.36a16.35,16.35,0,0,1-6.57,6.7,19.16,19.16,0,0,1-9.64,2.5A20.92,20.92,0,0,1,223.17,63.63Zm23.43-8.1c2.83-3,4.25-7,4.25-12A18.62,18.62,0,0,0,248.92,35a14.14,14.14,0,0,0-5.39-5.83,16.27,16.27,0,0,0-15.85,0A14.14,14.14,0,0,0,222.29,35a18.62,18.62,0,0,0-1.93,8.58c0,5,1.42,9,4.25,12a15.56,15.56,0,0,0,22,0Z" />
            <path class="cls-1"
                d="M277.73,63.63a19.45,19.45,0,0,1-7.4-8.14,26.63,26.63,0,0,1-2.58-12,26.42,26.42,0,0,1,2.58-11.87,19.45,19.45,0,0,1,7.4-8.14,20.93,20.93,0,0,1,11.13-2.94A19.33,19.33,0,0,1,298.49,23a16,16,0,0,1,6.57,6.65l.35-7.36c0-.58.32-.87,1-.87h4.55a.78.78,0,0,1,.88.87v42.4c0,.64-.3,1-.88,1h-4.55a.85.85,0,0,1-1-1l-.35-7.36a16.29,16.29,0,0,1-6.57,6.7,19.15,19.15,0,0,1-9.63,2.5A20.93,20.93,0,0,1,277.73,63.63Zm23.43-8.1c2.84-3,4.25-7,4.25-12A18.5,18.5,0,0,0,303.48,35a14.12,14.12,0,0,0-5.38-5.83,16.27,16.27,0,0,0-15.85,0A14.08,14.08,0,0,0,276.86,35a18.5,18.5,0,0,0-1.93,8.58c0,5,1.42,9,4.25,12a15.55,15.55,0,0,0,22,0Z" />
            <path class="cls-1"
                d="M326.43,65.69a.85.85,0,0,1-1-1V22.33q0-.87,1-.87h4.47q1,0,1,.87l.35,7.36A15.56,15.56,0,0,1,338.56,23a17.7,17.7,0,0,1,8.89-2.37,15.56,15.56,0,0,1,9.07,2.59,13.52,13.52,0,0,1,5.21,7.31,16.15,16.15,0,0,1,6.57-7.31,18.32,18.32,0,0,1,9.46-2.59q7.1,0,11.21,4.38t4.12,12V64.73c0,.64-.3,1-.88,1H387a.85.85,0,0,1-1-1V39.85q0-12.78-10.16-12.79a12.49,12.49,0,0,0-6.31,1.71,13.19,13.19,0,0,0-4.9,5.13,16.81,16.81,0,0,0-1.93,8.4V64.73c0,.64-.29,1-.88,1h-5.16a.85.85,0,0,1-1-1V39.85q0-12.78-10.16-12.79a12.43,12.43,0,0,0-6.3,1.71,13.22,13.22,0,0,0-4.91,5.13,16.91,16.91,0,0,0-1.92,8.4V64.73c0,.64-.3,1-.88,1Z" />
        </g>
    </g>
</svg>